<svg xmlns="http://www.w3.org/2000/svg" viewBox="0 0 1024 1024">
  <!-- 主版：纯白底 + 纯黑火苗，内焰负空间镂空（v5 对称 · 上下比例重调） -->
  <rect x="0" y="0" width="1024" height="1024" fill="#FFFFFF"/>

  <!-- 火星：四芒星 -->
  <path fill="#000000" d="
    M 512 188
    C 519 212 532 225 556 232
    C 532 239 519 252 512 276
    C 505 252 492 239 468 232
    C 492 225 505 212 512 188
    Z"/>

  <!-- 火苗：外形单路径，内焰为 evenodd 镂空 -->
  <path fill="#000000" fill-rule="evenodd" d="
    M 484 338
    C 494 312 530 312 540 338
    C 560 384 596 420 632 464
    C 660 500 678 538 678 580
    C 678 672 604 744 512 744
    C 420 744 346 672 346 580
    C 346 538 364 500 392 464
    C 428 420 464 384 484 338
    Z
    M 512 478
    C 518 489 526 499 536 512
    C 550 530 568 546 580 565
    C 590 580 598 594 600 612
    C 602 655 564 688 512 688
    C 460 688 422 655 422 612
    C 422 594 430 580 444 565
    C 456 546 474 530 488 512
    C 498 499 506 489 512 478
    Z"/>
</svg>
